<?xml version="1.0" encoding="utf-8"?>
<!-- Generator: Adobe Illustrator 25.4.1, SVG Export Plug-In . SVG Version: 6.00 Build 0)  -->
<svg version="1.1" id="Layer_1" xmlns="http://www.w3.org/2000/svg" xmlns:xlink="http://www.w3.org/1999/xlink" x="0px" y="0px"
	 viewBox="0 0 522.77 287.02" style="enable-background:new 0 0 522.77 287.02;" xml:space="preserve">
<style type="text/css">
	.st0{fill:#004071;}
	.st1{fill:url(#SVGID_1_);}
</style>
<g>
	<g>
		<path class="st0" d="M266.38,223l10.15,15.25h-9.59l-9.59-14.63h-5.67v14.63h-8.34v-33c0-5.23,2.24-7.47,7.47-7.47h10.21
			c9.15,0,13.76,4.3,13.76,12.95C274.79,217.45,271.99,221.56,266.38,223z M253.56,205.56c-1.25,0-1.87,0.62-1.87,1.87v8.41h9.34
			c3.61,0,5.42-1.68,5.42-5.11c0-3.49-1.49-5.17-5.42-5.17H253.56z"/>
		<path class="st0" d="M306.98,228.97c0,6.72-4.11,10.02-13.51,10.02c-9.4,0-13.51-3.3-13.51-9.84c0-6.48,4.23-9.71,12.64-9.71h6.29
			v-2.37c0-2.99-2.18-3.8-6.48-3.8c-3.8,0-6.72,0.37-8.9,1.18v-6.97c2.05-0.75,4.86-1.12,8.41-1.12c9.78,0,15.07,2.99,15.07,10.71
			V228.97z M298.88,225.55h-6.41c-2.93,0-4.42,1.12-4.42,3.42c0.25,2.99,2.24,3.3,5.29,3.24c3.18,0.06,5.23-0.31,5.54-3.67V225.55z"
			/>
		<path class="st0" d="M341.53,250.7h-8.09v-15.25c-1.74,2.37-4.61,3.55-8.53,3.55c-8.53,0-13.08-5.04-13.08-14.01v-4.98
			c0-9.09,4.98-13.64,14.88-13.64c8.9,0,14.82,4.36,14.82,13.64V250.7z M319.99,225.17c0,4.3,1.37,6.16,6.66,6.16
			c5.29,0,6.79-1.87,6.79-6.16v-4.98c0-4.3-1.49-6.16-6.79-6.16c-5.42,0-6.66,1.74-6.66,6.16V225.17z"/>
		<path class="st0" d="M373.1,228.97c0,6.72-4.11,10.02-13.51,10.02s-13.51-3.3-13.51-9.84c0-6.48,4.23-9.71,12.64-9.71H365v-2.37
			c0-2.99-2.18-3.8-6.48-3.8c-3.8,0-6.72,0.37-8.9,1.18v-6.97c2.05-0.75,4.86-1.12,8.41-1.12c9.78,0,15.07,2.99,15.07,10.71V228.97z
			 M365,225.55h-6.41c-2.93,0-4.42,1.12-4.42,3.42c0.25,2.99,2.24,3.3,5.29,3.24c3.18,0.06,5.23-0.31,5.54-3.67V225.55z"/>
		<path class="st0" d="M386.73,238.25h-8.16v-19.3c0-8.16,4.61-12.58,13.32-12.58c4.3,0,7.41,1.31,9.21,3.98
			c1.93-2.68,4.98-3.98,9.15-3.98c9.03,0,13.2,4.11,13.2,12.58v19.3h-8.16v-19.3c0-3.49-1-4.92-5.04-4.92
			c-4.23,0-5.29,1.43-5.29,4.92v19.3h-7.91v-19.3c0-3.49-1-4.92-5.17-4.92c-4.05,0-5.17,1.43-5.17,4.92V238.25z"/>
		<path class="st0" d="M435.3,207.12l4.86,22.23c0.5,2.24,1.12,2.62,2.93,2.62c1.18,0,1.81-0.56,2.3-2.62l4.86-22.23h8.34
			l-7.1,31.13c-2.24,9.78-7.66,14.32-16.87,14.32l-1.68-7.04c5.6,0,8.97-2.24,10.02-6.79c-0.5,0.19-1.37,0.25-2.55,0.25
			c-5.17,0-6.72-2.74-8.16-8.72l-5.29-23.16H435.3z"/>
		<path class="st0" d="M488.41,228.97c0,6.72-4.11,10.02-13.51,10.02s-13.51-3.3-13.51-9.84c0-6.48,4.23-9.71,12.64-9.71h6.29v-2.37
			c0-2.99-2.18-3.8-6.48-3.8c-3.8,0-6.72,0.37-8.9,1.18v-6.97c2.05-0.75,4.86-1.12,8.41-1.12c9.78,0,15.07,2.99,15.07,10.71V228.97z
			 M480.31,225.55h-6.41c-2.93,0-4.42,1.12-4.42,3.42c0.25,2.99,2.24,3.3,5.29,3.24c3.18,0.06,5.23-0.31,5.54-3.67V225.55z"/>
		<path class="st0" d="M494.51,238.25v-43.58h8.16v15.25c2.18-2.37,5.35-3.55,9.53-3.55c2.93,0,5.48,0.81,7.53,2.49
			c2.05,1.68,3.05,4.42,3.05,8.22v21.17h-8.16v-19.74c0-3.3-1.74-4.48-5.23-4.48c-4.17,0-6.72,1.87-6.72,7.53v16.69H494.51z"/>
	</g>
	<g>
		<rect x="264.29" y="120.79" class="st0" width="9.98" height="8.74"/>
		<rect x="250.42" y="120.79" class="st0" width="9.98" height="8.74"/>
		<rect x="317.86" y="175.92" class="st0" width="9.98" height="8.74"/>
		<rect x="303.99" y="175.92" class="st0" width="9.98" height="8.74"/>
		<rect x="490.11" y="120.79" class="st0" width="9.98" height="8.74"/>
		<rect x="476.25" y="120.79" class="st0" width="9.98" height="8.74"/>
		<path class="st0" d="M479.4,136.98c-2.89,1.5-5.15,3.53-6.8,6.07c-1.64,2.54-2.46,5.29-2.46,8.25c0,4.44,1.48,7.84,4.44,10.19
			h-8.6h0h-56.14h0h-9.01h0h-9.01c-2.73,0-4.81-0.67-6.24-2.01c0.83-2.08,1.25-4.44,1.25-7.07c0-3.33-0.79-6.34-2.36-9.05
			c-1.57-2.7-3.78-4.82-6.62-6.34c-2.84-1.53-6.14-2.29-9.88-2.29c-3.19,0-7.79,0.46-13.8,1.39v25.38h-4.16h0h-17.79
			c-2.68,0-4.67-0.2-5.96-0.59c-1.29-0.39-2.45-1.14-3.47-2.25c0.23-1.25,0.35-2.45,0.35-3.61v-20.32h-9.71v18.79
			c0,2.4-0.66,4.33-1.98,5.79c-1.32,1.46-2.9,2.18-4.75,2.18h-6.24h0h-17.79h0h-1.39c-1.76,0-3.09-0.5-3.99-1.49
			c-0.9-0.99-1.35-2.69-1.35-5.1l0.07-18.79c-6.01-0.92-10.61-1.39-13.8-1.39c-3.74,0-7.04,0.76-9.88,2.29
			c-2.84,1.53-5.05,3.64-6.62,6.34c-1.57,2.7-2.36,5.72-2.36,9.05c0,3.47,0.74,6.52,2.22,9.15c1.48,2.63,3.51,4.67,6.1,6.1
			c2.59,1.43,5.48,2.15,8.67,2.15h1.39l3.74-8.32h-3.61c-2.73,0-4.82-0.8-6.28-2.39c-1.46-1.59-2.18-3.78-2.18-6.55
			c0-6.33,2.82-9.5,8.46-9.5c1.29,0,2.75,0.16,4.37,0.49v12.9c0,4.11,1.04,7.37,3.12,9.78c2.08,2.4,5.08,3.61,9.01,3.61h4.3h0h17.79
			h0h9.15c2.22,0,4.24-0.46,6.07-1.39c1.83-0.92,3.34-2.22,4.54-3.88c1.57,1.94,3.24,3.29,4.99,4.06c1.76,0.76,4.09,1.17,7,1.21
			c0,0,0,0,0,0h17.79h0h19.97c4.72,0,8.67-1.53,11.86-4.58c1.43,1.53,3.06,2.67,4.89,3.43c1.83,0.76,3.52,1.14,5.1,1.14h0h9.01h0
			h9.01h0h56.14h0h36.82v-33.7c-5.92-0.92-10.49-1.39-13.73-1.39C485.51,134.73,482.29,135.48,479.4,136.98z M374.59,159.1
			c-1.46,1.59-3.55,2.39-6.28,2.39h-4.44v-17.96c1.53-0.32,3-0.49,4.44-0.49c5.64,0,8.46,3.17,8.46,9.5
			C376.77,155.32,376.04,157.51,374.59,159.1z M493.1,161.5h-3.61c-2.73-0.09-4.95-0.95-6.66-2.57c-1.71-1.62-2.57-3.74-2.57-6.38
			c0-6.33,2.82-9.5,8.46-9.5c1.29,0,2.75,0.16,4.37,0.49V161.5z"/>
		<path class="st0" d="M513.07,135.42v32.59c0,2.26-0.32,4.03-0.97,5.3c-0.65,1.27-1.62,2.18-2.91,2.74
			c-1.29,0.55-3.07,0.99-5.34,1.32l3.88,8.67c4.44-0.51,8.05-2.18,10.85-5.03c2.8-2.84,4.2-7.27,4.2-13.28v-32.31H513.07z"/>
	</g>
	<g>
		<path class="st0" d="M248.69,277.61c-2.4,0-3.42-1.02-3.42-3.42v-3.25c0-2.56,1.01-3.65,3.36-3.65c1.16,0,2.3,0.28,3.41,0.82
			l0.23,0.11v-1.88l-0.63-0.28c-0.16-0.07-0.3-0.13-0.43-0.19c-0.5-0.17-1.45-0.37-2.51-0.37c-3.59,0-5.34,1.78-5.34,5.44v3.25
			c0,3.56,1.71,5.22,5.38,5.22c1.43,0,2.6-0.27,3.58-0.83l0.08-0.05v-1.87l-0.24,0.14C251.25,277.34,250.08,277.61,248.69,277.61z"
			/>
		<path class="st0" d="M257.7,268.66c-2.41,0-3.63,1.24-3.63,3.67v6.87h1.84v-6.79c0-1.46,0.49-2,1.8-2c0.45,0,0.86,0.06,1.21,0.17
			l0.21,0.07v-1.8l-0.11-0.03C258.6,268.72,258.16,268.66,257.7,268.66z"/>
		<path class="st0" d="M264.28,268.66c-3.07,0-4.63,1.49-4.63,4.43v1.89c0,2.98,1.51,4.43,4.63,4.43c3.05,0,4.59-1.49,4.59-4.43
			v-1.89C268.87,270.11,267.37,268.66,264.28,268.66z M261.49,273.09c0-1.97,0.73-2.67,2.79-2.67c2.03,0,2.75,0.7,2.75,2.67v1.89
			c0,1.97-0.72,2.67-2.75,2.67c-2.04,0-2.79-0.72-2.79-2.67V273.09z"/>
		<path class="st0" d="M282.19,276.77c-0.12,0.88-0.53,0.98-0.82,0.98c-0.42,0-0.72-0.17-0.82-0.99l-0.92-5.8
			c-0.26-1.53-0.82-2.1-2.07-2.1c-1.28,0-1.83,0.55-2.07,2.1l-0.92,5.8c-0.1,0.81-0.4,0.98-0.82,0.98s-0.72-0.17-0.82-0.99
			l-1.24-7.9h-1.86l1.23,7.85c0.33,1.99,1.03,2.69,2.7,2.69c1.53,0,2.23-0.76,2.51-2.7l0.79-5.29c0.11-0.87,0.27-0.94,0.5-0.94
			c0.23,0,0.37,0.04,0.48,0.94l0.79,5.29c0.28,1.94,0.99,2.7,2.53,2.7c1.63,0,2.37-0.73,2.7-2.69l1.25-7.85h-1.88L282.19,276.77z"/>
		<path class="st0" d="M293.63,269.8c-0.62-0.75-1.64-1.13-3.02-1.13c-2.9,0-4.37,1.5-4.37,4.45V275c0,2.97,1.51,4.41,4.61,4.41
			c3.06,0,4.61-1.48,4.61-4.41v-9.37h-1.84V269.8z M293.63,274.98c0,1.97-0.73,2.67-2.77,2.67s-2.77-0.7-2.77-2.67v-1.89
			c0-1.97,0.73-2.67,2.77-2.67s2.77,0.7,2.77,2.67V274.98z"/>
		<path class="st0" d="M305.67,277.57c-0.38,0-0.88-0.14-0.88-1.39v-10.55h-1.84v10.82c0,1.86,0.89,2.88,2.52,2.88
			c0.37,0,0.69-0.06,0.99-0.17l0.1-0.04v-1.75l-0.22,0.1C306.17,277.53,305.95,277.57,305.67,277.57z"/>
		<path class="st0" d="M311.95,268.66c-2.95,0-4.45,1.5-4.45,4.45V275c0,3.05,1.5,4.41,4.85,4.41c1.34,0,2.51-0.21,3.48-0.62
			l0.1-0.04v-1.78l-0.22,0.09c-0.93,0.4-2.06,0.6-3.36,0.6c-2.17,0-3.02-0.68-3.02-2.43v-0.45h6.74l0.03-0.12
			c0.11-0.49,0.17-1.08,0.17-1.76C316.28,270.16,314.74,268.66,311.95,268.66z M311.93,270.34c1.74,0,2.59,0.76,2.59,2.32v0.51
			h-5.18v-0.51C309.34,271.1,310.19,270.34,311.93,270.34z"/>
		<path class="st0" d="M322.42,268.66c-2.92,0-4.41,1.33-4.41,3.96v6.58h1.84v-6.58c0-1.61,0.7-2.2,2.57-2.2
			c1.87,0,2.53,0.58,2.53,2.2v6.58h1.86v-6.58C326.81,269.96,325.37,268.66,322.42,268.66z"/>
		<path class="st0" d="M336.07,269.8c-0.62-0.75-1.64-1.13-3.02-1.13c-2.9,0-4.37,1.5-4.37,4.45V275c0,2.97,1.51,4.41,4.61,4.41
			c3.06,0,4.61-1.48,4.61-4.41v-9.37h-1.84V269.8z M336.07,274.98c0,1.97-0.73,2.67-2.77,2.67s-2.77-0.7-2.77-2.67v-1.89
			c0-1.97,0.73-2.67,2.77-2.67s2.77,0.7,2.77,2.67V274.98z"/>
		<path class="st0" d="M341.07,265.63c-0.48,0-0.9,0.29-1.08,0.74c-0.17,0.44-0.07,0.91,0.26,1.22c0.22,0.22,0.5,0.33,0.82,0.33
			c0.63,0,1.13-0.5,1.13-1.13C342.2,266.14,341.69,265.63,341.07,265.63z"/>
		<rect x="340.14" y="268.87" class="st0" width="1.84" height="10.34"/>
		<path class="st0" d="M348.72,268.66c-2.92,0-4.41,1.33-4.41,3.96v6.58h1.84v-6.58c0-1.61,0.7-2.2,2.57-2.2
			c1.87,0,2.53,0.58,2.53,2.2v6.58h1.86v-6.58C353.1,269.96,351.67,268.66,348.72,268.66z"/>
		<path class="st0" d="M362.91,278.06c-0.68-0.43-1.85-0.63-3.58-0.63c-1.11,0-1.77-0.04-2.1-0.14c-0.34-0.08-0.39-0.25-0.39-0.4
			c0-0.24,0.13-0.4,0.4-0.48c0.3-0.09,0.96-0.14,2.09-0.14c2.9,0,4.37-1.24,4.37-3.69v-0.24c0-0.94-0.28-1.71-0.83-2.28l1.32-1.34
			l-1.07-1.02l-1.72,1.35c-0.62-0.25-1.32-0.38-2.07-0.38c-2.75,0-4.39,1.37-4.39,3.67v0.24c0,1.38,0.47,2.36,1.39,2.91
			c-0.88,0.25-1.33,0.8-1.33,1.65c0,0.6,0.23,1.05,0.69,1.36c-0.66,0.5-1,1.23-1,2.16c0,1.02,0.35,1.79,1.04,2.28
			c0.65,0.46,1.86,0.7,3.59,0.7c1.7,0,2.87-0.24,3.57-0.72c0.7-0.5,1.04-1.34,1.04-2.55C363.94,279.3,363.6,278.53,362.91,278.06z
			 M361.84,272.58c0,1.26-0.42,2.04-2.51,2.04c-2.12,0-2.55-0.82-2.55-2.04v-0.24c0-1.35,0.83-2,2.55-2c1.69,0,2.51,0.65,2.51,2
			V272.58z M359.33,282c-2.17,0-2.79-0.34-2.79-1.51c0-0.72,0.28-1.22,0.83-1.51c0.49,0.06,1.17,0.1,1.97,0.1
			c2.25,0,2.77,0.25,2.77,1.35C362.1,281.65,361.48,282,359.33,282z"/>
	</g>
	<g>
		<path class="st0" d="M406.32,276.42c0.43,0.16,0.85,0.33,1.26,0.5c0.41,0.17,0.8,0.33,1.19,0.47c0.39,0.14,0.77,0.26,1.15,0.35
			c0.38,0.09,0.77,0.13,1.16,0.13h1.65c0.27,0,0.47,0.05,0.61,0.14c0.14,0.1,0.2,0.28,0.2,0.57c0,0.34-0.06,0.57-0.19,0.69
			c-0.13,0.12-0.34,0.18-0.62,0.18h-1.45c0.07,0.11,0.15,0.29,0.24,0.54c0.09,0.25,0.14,0.53,0.14,0.82c0,0.33-0.06,0.65-0.19,0.97
			c-0.13,0.32-0.34,0.61-0.64,0.86c-0.3,0.26-0.69,0.46-1.18,0.62c-0.49,0.16-1.08,0.23-1.79,0.23h-4.75c-1.58,0-2.79-0.4-3.61-1.19
			c-0.83-0.79-1.24-1.88-1.24-3.26c0-0.8,0.13-1.57,0.4-2.31c0.26-0.74,0.57-1.36,0.93-1.86c0.05-0.09,0.15-0.1,0.28-0.02l1.12,0.61
			c0.11,0.07,0.13,0.16,0.06,0.26c-0.24,0.38-0.48,0.85-0.7,1.4c-0.22,0.56-0.34,1.14-0.34,1.75c0,0.56,0.09,1.03,0.27,1.41
			c0.18,0.39,0.43,0.69,0.74,0.93c0.31,0.23,0.67,0.4,1.07,0.5c0.4,0.1,0.82,0.15,1.27,0.15h4.49c0.81,0,1.38-0.12,1.7-0.37
			c0.32-0.24,0.48-0.54,0.48-0.87c0-0.3-0.09-0.56-0.27-0.77c-0.18-0.22-0.45-0.42-0.81-0.6c-0.36-0.18-0.81-0.37-1.34-0.56
			c-0.54-0.19-1.15-0.41-1.84-0.67c-0.12-0.04-0.16-0.12-0.12-0.24l0.45-1.22C406.11,276.43,406.19,276.38,406.32,276.42z
			 M402.98,287.02c-0.14,0-0.2-0.07-0.2-0.2v-1.48c0-0.14,0.07-0.2,0.2-0.2h1.38c0.14,0,0.2,0.07,0.2,0.2v1.48
			c0,0.14-0.07,0.2-0.2,0.2H402.98z M405.46,287.02c-0.14,0-0.2-0.07-0.2-0.2v-1.48c0-0.14,0.07-0.2,0.2-0.2h1.38
			c0.14,0,0.2,0.07,0.2,0.2v1.48c0,0.14-0.07,0.2-0.2,0.2H405.46z"/>
		<path class="st0" d="M422.1,277.87c0.14,0,0.2,0.07,0.2,0.2v1.18c0,0.14-0.07,0.2-0.2,0.2h-9.37c-0.54,0-0.81-0.27-0.81-0.81
			c0-0.34,0.06-0.55,0.19-0.64c0.13-0.09,0.34-0.13,0.62-0.13h2.32c-0.32-0.31-0.59-0.7-0.81-1.18c-0.22-0.47-0.33-1.04-0.33-1.71
			c0-0.42,0.06-0.88,0.19-1.37c0.12-0.49,0.35-0.95,0.68-1.37c0.33-0.42,0.78-0.77,1.34-1.05c0.56-0.28,1.29-0.42,2.17-0.42
			c0.8,0,1.49,0.15,2.07,0.44c0.58,0.29,1.05,0.69,1.4,1.21c0.07,0.11,0.05,0.2-0.06,0.28l-0.89,0.73c-0.11,0.08-0.2,0.07-0.28-0.02
			c-0.61-0.7-1.38-1.06-2.3-1.06c-0.84,0-1.46,0.25-1.87,0.74c-0.41,0.49-0.61,1.12-0.61,1.86c0,0.5,0.08,0.93,0.24,1.28
			s0.35,0.64,0.56,0.87c0.21,0.23,0.42,0.4,0.64,0.52s0.39,0.19,0.51,0.23H422.1z"/>
		<path class="st0" d="M424.64,265.83c0-0.14,0.07-0.2,0.2-0.2h1.3c0.14,0,0.2,0.07,0.2,0.2v10.96c0,0.41,0.08,0.69,0.23,0.84
			c0.16,0.16,0.4,0.23,0.74,0.23h0.89c0.54,0,0.81,0.27,0.81,0.81c0,0.34-0.06,0.55-0.19,0.64c-0.13,0.09-0.34,0.13-0.62,0.13h-1.2
			c-0.85,0-1.46-0.21-1.83-0.62c-0.37-0.41-0.55-1.06-0.55-1.94V265.83z"/>
		<path class="st0" d="M434.36,279.6c-0.64,0-1.2-0.09-1.69-0.27c-0.49-0.18-0.9-0.47-1.24-0.86c-0.28,0.43-0.65,0.71-1.1,0.82
			c-0.45,0.12-0.86,0.17-1.24,0.17h-0.87c-0.54,0-0.81-0.27-0.81-0.81c0-0.34,0.06-0.55,0.19-0.64c0.13-0.09,0.34-0.13,0.62-0.13
			h1.02c0.15,0,0.3-0.03,0.45-0.09c0.15-0.06,0.28-0.16,0.41-0.31c0.12-0.14,0.22-0.33,0.3-0.57c0.07-0.24,0.11-0.53,0.11-0.88
			c-0.01-0.14-0.02-0.27-0.02-0.4c0-0.13,0-0.27,0-0.42c0-1.56,0.35-2.69,1.04-3.39c0.69-0.7,1.64-1.05,2.85-1.05
			c1.21,0,2.16,0.35,2.85,1.05c0.69,0.7,1.04,1.83,1.04,3.39c0,0.15,0,0.3-0.01,0.45c-0.01,0.15-0.02,0.29-0.03,0.43
			c0.01,0.69,0.15,1.16,0.42,1.41c0.26,0.25,0.55,0.38,0.84,0.38h0.59c0.27,0,0.47,0.06,0.61,0.17c0.14,0.12,0.2,0.31,0.2,0.58
			c0,0.35-0.06,0.58-0.19,0.68c-0.13,0.1-0.34,0.15-0.62,0.15h-0.45c-0.19,0-0.39-0.01-0.61-0.03c-0.22-0.02-0.43-0.06-0.64-0.13
			c-0.21-0.07-0.41-0.17-0.6-0.3c-0.19-0.13-0.35-0.3-0.49-0.52c-0.34,0.39-0.75,0.68-1.24,0.85
			C435.54,279.51,434.98,279.6,434.36,279.6z M434.36,272.36c-0.76,0-1.31,0.25-1.66,0.75c-0.35,0.5-0.52,1.2-0.52,2.09
			c0,0.98,0.17,1.69,0.52,2.14c0.35,0.45,0.9,0.67,1.66,0.67c0.76,0,1.31-0.22,1.66-0.67c0.35-0.45,0.52-1.16,0.52-2.14
			c0-0.89-0.17-1.59-0.52-2.09C435.67,272.61,435.12,272.36,434.36,272.36z"/>
		<path class="st0" d="M444.79,272.36c-0.46,0-0.88,0.1-1.27,0.28c-0.39,0.19-0.73,0.45-1.03,0.77c-0.08,0.1-0.18,0.1-0.28,0.02
			l-0.89-0.73c-0.12-0.09-0.14-0.19-0.06-0.28c0.38-0.47,0.85-0.87,1.41-1.18c0.56-0.31,1.25-0.47,2.06-0.47
			c0.94,0,1.7,0.15,2.3,0.44c0.6,0.29,1.07,0.67,1.42,1.15s0.59,1.02,0.73,1.65c0.14,0.62,0.21,1.27,0.21,1.93
			c0,0.12,0,0.24-0.01,0.35s-0.01,0.22-0.01,0.33c0.03,0.42,0.21,0.74,0.54,0.95c0.33,0.21,0.76,0.31,1.29,0.31h0.22
			c0.27,0,0.47,0.06,0.61,0.17c0.14,0.12,0.2,0.31,0.2,0.58c0,0.35-0.06,0.58-0.19,0.68c-0.13,0.1-0.34,0.15-0.62,0.15h-0.43
			c-0.46,0-0.88-0.1-1.24-0.29c-0.37-0.2-0.63-0.49-0.78-0.88c-0.23,0.43-0.56,0.74-0.98,0.92c-0.42,0.18-0.94,0.26-1.56,0.26h-6.41
			c-0.54,0-0.81-0.27-0.81-0.81c0-0.34,0.06-0.55,0.19-0.64c0.13-0.09,0.34-0.13,0.62-0.13h5.78c0.38,0,0.68-0.03,0.92-0.09
			c0.23-0.06,0.41-0.17,0.53-0.32c0.12-0.15,0.2-0.35,0.24-0.6c0.04-0.25,0.06-0.56,0.06-0.93c0-0.53-0.05-1.01-0.14-1.45
			c-0.1-0.44-0.25-0.82-0.46-1.14c-0.21-0.32-0.49-0.56-0.84-0.73C445.76,272.44,445.32,272.36,444.79,272.36z M444.4,283.2
			c-0.14,0-0.2-0.07-0.2-0.2v-1.48c0-0.14,0.07-0.2,0.2-0.2h1.38c0.14,0,0.2,0.07,0.2,0.2v1.48c0,0.14-0.07,0.2-0.2,0.2H444.4z"/>
		<path class="st0" d="M451.4,279.45c-0.27,0-0.47-0.05-0.61-0.14c-0.14-0.09-0.2-0.28-0.2-0.57c0-0.34,0.06-0.57,0.19-0.69
			c0.13-0.12,0.34-0.18,0.62-0.18h1.28c0.34,0,0.59-0.08,0.74-0.23c0.16-0.16,0.23-0.44,0.23-0.84v-10.96c0-0.14,0.07-0.2,0.2-0.2
			h1.3c0.14,0,0.2,0.07,0.2,0.2v11.06c0,0.88-0.18,1.53-0.55,1.94c-0.37,0.41-0.98,0.62-1.83,0.62H451.4z"/>
		<path class="st0" d="M459.92,279.25c0,0.14-0.07,0.2-0.2,0.2h-1.3c-0.14,0-0.2-0.07-0.2-0.2v-13.42c0-0.14,0.07-0.2,0.2-0.2h1.3
			c0.14,0,0.2,0.07,0.2,0.2V279.25z"/>
		<path class="st0" d="M468.46,274.88c0.05-0.09,0.15-0.1,0.28-0.02l1.12,0.61c0.11,0.07,0.13,0.16,0.06,0.26
			c-0.24,0.38-0.48,0.85-0.7,1.4c-0.22,0.56-0.34,1.14-0.34,1.75c0,0.58,0.1,1.07,0.29,1.45c0.2,0.39,0.45,0.69,0.76,0.92
			c0.31,0.22,0.65,0.38,1.02,0.48c0.37,0.09,0.73,0.14,1.08,0.14c0.87,0,1.58-0.22,2.13-0.67c0.56-0.45,0.83-1.17,0.83-2.18v-13.2
			c0-0.14,0.07-0.2,0.2-0.2h1.3c0.14,0,0.2,0.07,0.2,0.2v10.66c0,0.46,0.17,0.81,0.5,1.04c0.33,0.23,0.78,0.35,1.33,0.35h0.22
			c0.27,0,0.47,0.06,0.61,0.17c0.14,0.12,0.2,0.31,0.2,0.58c0,0.35-0.06,0.58-0.19,0.68c-0.13,0.1-0.34,0.15-0.62,0.15h-0.43
			c-0.71,0-1.25-0.22-1.63-0.65v0.24c0,1.4-0.41,2.49-1.23,3.27c-0.82,0.79-2,1.18-3.55,1.18c-0.73,0-1.39-0.1-1.98-0.29
			c-0.59-0.2-1.09-0.48-1.5-0.86c-0.41-0.38-0.74-0.84-0.97-1.39c-0.23-0.55-0.35-1.18-0.35-1.9c0-0.8,0.13-1.57,0.4-2.31
			C467.8,276,468.11,275.38,468.46,274.88z"/>
		<path class="st0" d="M478.77,279.45c-0.27,0-0.47-0.05-0.61-0.14c-0.14-0.09-0.2-0.28-0.2-0.57c0-0.34,0.06-0.57,0.19-0.69
			c0.13-0.12,0.34-0.18,0.62-0.18h1.4c0.34,0,0.59-0.08,0.74-0.23c0.16-0.16,0.23-0.44,0.23-0.84v-5.45c0-0.14,0.07-0.2,0.2-0.2h1.3
			c0.14,0,0.2,0.07,0.2,0.2v5.55c0,0.88-0.18,1.53-0.55,1.94c-0.37,0.41-0.98,0.62-1.83,0.62H478.77z M479.64,283.24
			c-0.14,0-0.2-0.07-0.2-0.2v-1.48c0-0.14,0.07-0.2,0.2-0.2h1.38c0.14,0,0.2,0.07,0.2,0.2v1.48c0,0.14-0.07,0.2-0.2,0.2H479.64z
			 M482.12,283.24c-0.14,0-0.2-0.07-0.2-0.2v-1.48c0-0.14,0.07-0.2,0.2-0.2h1.38c0.14,0,0.2,0.07,0.2,0.2v1.48
			c0,0.14-0.07,0.2-0.2,0.2H482.12z"/>
		<path class="st0" d="M487.23,283.5c-0.14,0-0.2-0.07-0.2-0.2v-1.18c0-0.14,0.07-0.2,0.2-0.2h2.44c0.27,0,0.52-0.03,0.75-0.09
			c0.23-0.06,0.43-0.16,0.6-0.3c0.17-0.14,0.3-0.34,0.4-0.59c0.09-0.25,0.14-0.57,0.14-0.95v-0.53h-2.18c-0.6,0-1.14-0.07-1.62-0.21
			c-0.48-0.14-0.89-0.37-1.23-0.69c-0.34-0.32-0.6-0.74-0.77-1.27c-0.18-0.53-0.26-1.18-0.26-1.95c0-0.77,0.1-1.45,0.31-2.02
			c0.21-0.58,0.49-1.05,0.85-1.42c0.36-0.37,0.78-0.65,1.25-0.83c0.47-0.18,0.98-0.27,1.5-0.27c1.21,0,2.15,0.35,2.83,1.05
			c0.68,0.7,1.02,1.83,1.02,3.39v2.66h1.4c0.27,0,0.47,0.06,0.61,0.17c0.14,0.12,0.2,0.31,0.2,0.58c0,0.35-0.06,0.58-0.19,0.68
			c-0.13,0.1-0.34,0.15-0.62,0.15h-1.4v0.49c0,0.64-0.08,1.18-0.25,1.63c-0.17,0.45-0.41,0.81-0.71,1.1
			c-0.31,0.28-0.67,0.49-1.11,0.63c-0.43,0.14-0.92,0.2-1.44,0.2H487.23z M489.42,272.36c-0.68,0-1.22,0.27-1.62,0.81
			c-0.4,0.54-0.6,1.26-0.6,2.16c0,0.96,0.19,1.63,0.58,1.99c0.39,0.37,0.96,0.55,1.72,0.55h2.05v-2.66c0-0.89-0.17-1.59-0.5-2.09
			C490.73,272.61,490.18,272.36,489.42,272.36z"/>
		<path class="st0" d="M500.83,279.6c-0.64,0-1.2-0.09-1.69-0.27c-0.49-0.18-0.9-0.47-1.24-0.86c-0.28,0.43-0.65,0.71-1.1,0.82
			c-0.45,0.12-0.86,0.17-1.24,0.17h-0.87c-0.54,0-0.81-0.27-0.81-0.81c0-0.34,0.06-0.55,0.19-0.64c0.13-0.09,0.34-0.13,0.62-0.13
			h1.02c0.15,0,0.3-0.03,0.45-0.09c0.15-0.06,0.28-0.16,0.41-0.31c0.12-0.14,0.22-0.33,0.29-0.57c0.07-0.24,0.11-0.53,0.11-0.88
			c-0.01-0.14-0.02-0.27-0.02-0.4c0-0.13,0-0.27,0-0.42c0-1.56,0.35-2.69,1.04-3.39c0.69-0.7,1.64-1.05,2.85-1.05
			c1.21,0,2.16,0.35,2.85,1.05c0.69,0.7,1.04,1.83,1.04,3.39c0,0.15,0,0.3-0.01,0.45c-0.01,0.15-0.02,0.29-0.03,0.43
			c0.01,0.69,0.15,1.16,0.42,1.41c0.26,0.25,0.55,0.38,0.84,0.38h0.59c0.27,0,0.47,0.06,0.61,0.17c0.14,0.12,0.2,0.31,0.2,0.58
			c0,0.35-0.06,0.58-0.19,0.68c-0.13,0.1-0.34,0.15-0.62,0.15h-0.45c-0.19,0-0.39-0.01-0.61-0.03c-0.22-0.02-0.43-0.06-0.64-0.13
			c-0.21-0.07-0.41-0.17-0.6-0.3c-0.19-0.13-0.35-0.3-0.49-0.52c-0.34,0.39-0.75,0.68-1.24,0.85
			C502.01,279.51,501.46,279.6,500.83,279.6z M500.83,272.36c-0.76,0-1.31,0.25-1.66,0.75c-0.35,0.5-0.52,1.2-0.52,2.09
			c0,0.98,0.17,1.69,0.52,2.14c0.35,0.45,0.9,0.67,1.66,0.67c0.76,0,1.31-0.22,1.66-0.67c0.35-0.45,0.52-1.16,0.52-2.14
			c0-0.89-0.17-1.59-0.52-2.09C502.14,272.61,501.59,272.36,500.83,272.36z"/>
		<path class="st0" d="M506.65,279.45c-0.27,0-0.47-0.05-0.61-0.14c-0.14-0.09-0.2-0.28-0.2-0.57c0-0.34,0.06-0.57,0.19-0.69
			c0.13-0.12,0.34-0.18,0.62-0.18h1.38c0.34,0,0.59-0.08,0.74-0.23c0.16-0.16,0.23-0.44,0.23-0.84v-5.45c0-0.14,0.07-0.2,0.2-0.2
			h1.3c0.14,0,0.2,0.07,0.2,0.2v5.14c0,0.46,0.17,0.81,0.5,1.04c0.33,0.23,0.78,0.35,1.33,0.35h0.24c0.27,0,0.47,0.06,0.61,0.17
			c0.14,0.12,0.2,0.31,0.2,0.58c0,0.35-0.06,0.58-0.19,0.68c-0.13,0.1-0.34,0.15-0.62,0.15h-0.45c-0.43,0-0.81-0.09-1.14-0.26
			c-0.33-0.18-0.58-0.44-0.75-0.79c-0.34,0.71-1.04,1.06-2.11,1.06H506.65z M507.89,269.12c-0.14,0-0.2-0.07-0.2-0.2v-1.48
			c0-0.14,0.07-0.2,0.2-0.2h1.38c0.14,0,0.2,0.07,0.2,0.2v1.48c0,0.14-0.07,0.2-0.2,0.2H507.89z M510.37,269.12
			c-0.14,0-0.2-0.07-0.2-0.2v-1.48c0-0.14,0.07-0.2,0.2-0.2h1.38c0.14,0,0.2,0.07,0.2,0.2v1.48c0,0.14-0.07,0.2-0.2,0.2H510.37z"/>
		<path class="st0" d="M512.79,279.45c-0.27,0-0.47-0.05-0.61-0.14c-0.14-0.09-0.2-0.28-0.2-0.57c0-0.34,0.06-0.57,0.19-0.69
			c0.13-0.12,0.34-0.18,0.62-0.18h1.28c0.34,0,0.59-0.08,0.74-0.23c0.16-0.16,0.23-0.44,0.23-0.84v-10.96c0-0.14,0.07-0.2,0.2-0.2
			h1.3c0.14,0,0.2,0.07,0.2,0.2v10.66c0,0.46,0.17,0.81,0.5,1.04c0.33,0.23,0.78,0.35,1.33,0.35h0.24c0.27,0,0.47,0.06,0.61,0.17
			c0.14,0.12,0.2,0.31,0.2,0.58c0,0.35-0.06,0.58-0.19,0.68c-0.13,0.1-0.34,0.15-0.62,0.15h-0.45c-0.43,0-0.81-0.09-1.14-0.26
			c-0.33-0.18-0.58-0.44-0.75-0.79c-0.34,0.71-1.04,1.06-2.11,1.06H512.79z"/>
		<path class="st0" d="M518.81,279.45c-0.27,0-0.47-0.05-0.61-0.14c-0.14-0.09-0.2-0.28-0.2-0.57c0-0.34,0.06-0.57,0.19-0.69
			c0.13-0.12,0.34-0.18,0.62-0.18h1.28c0.34,0,0.59-0.08,0.74-0.23c0.16-0.16,0.23-0.44,0.23-0.84v-10.96c0-0.14,0.07-0.2,0.2-0.2
			h1.3c0.14,0,0.2,0.07,0.2,0.2v11.06c0,0.88-0.18,1.53-0.55,1.94c-0.37,0.41-0.98,0.62-1.83,0.62H518.81z"/>
	</g>
</g>
<linearGradient id="SVGID_1_" gradientUnits="userSpaceOnUse" x1="-4.4974" y1="276.3808" x2="214.081" y2="57.8025">
	<stop  offset="0" style="stop-color:#28A4DB"/>
	<stop  offset="1" style="stop-color:#37AA57"/>
</linearGradient>
<path class="st1" d="M204.1,191.45c0.03-0.01,0.05-0.02,0.07-0.04c3.23-1.78,5.41-5.22,5.41-9.17V57.64c0-3.98-2.21-7.44-5.48-9.21
	c-0.15-0.08-0.29-0.16-0.45-0.23l-46.46-23.23l-47.42-23.7c-0.16-0.08-0.3-0.16-0.46-0.23C107.93,0.37,106.39,0,104.77,0
	c-1.45,0-2.82,0.29-4.08,0.83c-0.04,0.01-0.08,0.03-0.12,0.05l-1,0.49l-47.19,23.6L5.94,48.2c-0.16,0.07-0.3,0.15-0.46,0.23
	C2.22,50.2,0,53.66,0,57.64v218.9c0,5.78,4.69,10.48,10.48,10.48c1.63,0,3.18-0.37,4.55-1.04c0.16-0.07,0.3-0.15,0.45-0.23
	l36.92-18.45l52.39-26.2l52.39,26.2l36.92,18.45c0.16,0.08,0.3,0.16,0.46,0.23c1.37,0.67,2.91,1.04,4.54,1.04
	c5.79,0,10.48-4.69,10.48-10.48v-28.96c0-3.97-2.21-7.44-5.48-9.21c-0.15-0.08-0.29-0.16-0.45-0.23l-46.46-23.23l46.23-23.12
	L204.1,191.45z M157.18,84.38v71.68c0,3.89-2.12,7.28-5.26,9.09c-0.37,0.22-0.74,0.41-1.13,0.57l-46,23l-36.92,18.45
	c-0.15,0.08-0.29,0.16-0.45,0.23c-1.37,0.67-2.91,1.04-4.55,1.04c-5.78,0-10.48-4.69-10.48-10.48V84.38
	c-0.01-0.18-0.01-0.36-0.01-0.53c0-0.18,0-0.36,0.01-0.53c0.19-3.75,2.36-6.99,5.47-8.68c0.16-0.08,0.3-0.16,0.46-0.23l41.47-20.73
	c0.16-0.08,0.3-0.16,0.46-0.23c1.37-0.67,2.91-1.04,4.54-1.04c1.62,0,3.16,0.37,4.54,1.04c0.16,0.07,0.3,0.15,0.46,0.23l41.47,20.73
	c0.16,0.07,0.3,0.15,0.46,0.23c3.11,1.69,5.28,4.93,5.47,8.68c0.01,0.18,0.01,0.36,0.01,0.53C157.19,84.02,157.19,84.2,157.18,84.38
	z"/>
</svg>
